<svg viewBox="0 0 1440 180" xmlns="http://www.w3.org/2000/svg" preserveAspectRatio="none">
  <!-- Water -->
  <path d="
      M0,60
      C120,90 240,30 360,50
      C480,70 600,110 720,95
      C840,80 960,40 1080,55
      C1200,70 1320,110 1440,85
      L1440,0
      L0,0
      Z" fill="#FCFCFC"></path>

  <!-- Beach -->
  <path d="
      M0,60
      C120,90 240,30 360,50
      C480,70 600,110 720,95
      C840,80 960,40 1080,55
      C1200,70 1320,110 1440,85
      L1440,180
      L0,180
      Z" fill="#e4e2e2bd"></path>
</svg>
